# xmcd
# Track frame offsets:
# 150
# 12049
# 30948
# 48391
# 68717
# 84763
# 102825
# 116837
# 134747
# 148382
# 164077
# 182102
# 197162
# 212630
# 230100
# 245764
# 259891
# 273631
# 288739
#
# Disc length: 4072 seconds
# Revision: 0
# Processed by: cddbd v1.5.2PL0 Copyright (c) Steve Scherf et al.
# Submitted via: VisiTrax 2.11.3.279 - For more info visit www.synapsa.com
#
DISCID=2b0fe613
DTITLE=Various Artist - Men Of Country 2017 CD 2
DYEAR=2017
DGENRE=Country
TTITLE0=Alan Jackson - Little Bitty
TTITLE1=Kenny Chesney - Til It's Gone
TTITLE2=Jason Aldean - Tonight Looks Good on You
TTITLE3=Travis Collins - Call Me Crazy
TTITLE4=Chris Young - Gettin You Home
TTITLE5=Blake Shelton - Mine Would Be You
TTITLE6=Dan and Shay - Shay - Nothin' Like You
TTITLE7=John Anderson - Seminole Wind
TTITLE8=The Wolfe Brothers - When I Was The One
TTITLE9=Lee Kernaghan - Flying With The King
TTITLE10=Hank Williams Jr. - Family Tradition
TTITLE11=Tyler Farr - C.O.U.N.T.R.Y.
TTITLE12=Rodney Atkins - Farmer's Daughter
TTITLE13=Frankie Ballard - Helluva Life
TTITLE14=Big and Rich - Comin' To Your City
TTITLE15=Ryan Hurd - Love In A Bar
TTITLE16=Kane Brown - Ain't No Stopping Us Now
TTITLE17=Morgan Evans - While We're Young
TTITLE18=Johnny Cash - A Boy Named Sue
EXTD=
EXTT0=
EXTT1=
EXTT2=
EXTT3=
EXTT4=
EXTT5=
EXTT6=
EXTT7=
EXTT8=
EXTT9=
EXTT10=
EXTT11=
EXTT12=
EXTT13=
EXTT14=
EXTT15=
EXTT16=
EXTT17=
EXTT18=
PLAYORDER=
